<svg xmlns="http://www.w3.org/2000/svg" viewBox="0 0 1280 420" width="1280" height="420" fill="none" font-family="&#39;SFMono-Regular&#39;,&#39;JetBrains Mono&#39;,&#39;DejaVu Sans Mono&#39;,Consolas,&#39;Courier New&#39;,monospace" role="img" aria-label="Ayush Kumar — Agentic AI and Security Engineer.">
  <defs>
    <linearGradient id="bgGrad" x1="0" y1="0" x2="0" y2="1">
      <stop offset="0" stop-color="#0c0f08"></stop>
      <stop offset="0.55" stop-color="#0a0c07"></stop>
      <stop offset="1" stop-color="#070806"></stop>
    </linearGradient>
    <radialGradient id="vignette" cx="0.5" cy="0.34" r="0.85">
      <stop offset="0" stop-color="#241b06" stop-opacity="0.6"></stop>
      <stop offset="0.6" stop-color="#0a0c07" stop-opacity="0"></stop>
      <stop offset="1" stop-color="#000000" stop-opacity="0.55"></stop>
    </radialGradient>
    <linearGradient id="amber" x1="0" y1="0" x2="1" y2="0.4">
      <stop offset="0" stop-color="#ffb627"></stop>
      <stop offset="1" stop-color="#ffe0a3"></stop>
    </linearGradient>
    <pattern id="grid" width="34" height="34" patternUnits="userSpaceOnUse">
      <path d="M34 0H0V34" fill="none" stroke="#4a3c16" stroke-opacity="0.30" stroke-width="1"></path>
    </pattern>
    <filter id="glow" x="-30%" y="-30%" width="160%" height="160%">
      <feGaussianBlur stdDeviation="5" result="b"></feGaussianBlur>
      <feMerge><feMergeNode in="b"></feMergeNode><feMergeNode in="SourceGraphic"></feMergeNode></feMerge>
    </filter>
  </defs>

  <rect width="1280" height="420" fill="url(#bgGrad)"></rect>
  <rect width="1280" height="420" fill="url(#grid)"></rect>
  <rect width="1280" height="420" fill="url(#vignette)"></rect>

  <g opacity="0.05" fill="#ffb627">
    <g>
      
      <rect width="1280" height="1" y="-2"></rect><rect width="1280" height="1" y="6"></rect><rect width="1280" height="1" y="14"></rect><rect width="1280" height="1" y="22"></rect><rect width="1280" height="1" y="30"></rect><rect width="1280" height="1" y="38"></rect>
    </g>
  </g>

  <g stroke="#ffb627" stroke-width="1.5" opacity="0.7">
    <path d="M28 28 H60 M28 28 V60"></path><path d="M1252 28 H1220 M1252 28 V60"></path><path d="M28 392 H60 M28 392 V360"></path><path d="M1252 392 H1220 M1252 392 V360"></path>
  </g>

  <g font-size="13" letter-spacing="0.5" fill="#b9be92">
    <text x="58" y="78" opacity="1">agent-os :: cold boot ......................... <tspan fill="#ffb627">ok</tspan></text>
    <text x="58" y="100" opacity="1">mounting /identity/ayush.kumar ................. <tspan fill="#ffb627">ok</tspan></text>
    <text x="58" y="122" opacity="1">spawning [ researcher ] × [ security ] ......... <tspan fill="#ffb627">ok</tspan></text>
    <text x="58" y="144" opacity="1">lethal-trifecta separation ............... <tspan fill="#ffb627">ENFORCED</tspan></text>
  </g>

  <g opacity="1">
    
    
    <text x="54" y="284" font-size="92" font-weight="700" fill="url(#amber)" filter="url(#glow)" letter-spacing="2">AYUSH KUMAR</text>
  </g>

  <g font-size="20" letter-spacing="3" opacity="1">
    
    <text x="58" y="334"><tspan fill="#c9cdb0">AGENTIC AI</tspan><tspan fill="#ffb627">  ×  </tspan><tspan fill="#c9cdb0">SECURITY ENGINEER</tspan><tspan fill="#ffb627" font-weight="700"> _</tspan></text>
  </g>

  <g transform="translate(1000,70)">
    <rect x="0" y="0" width="224" height="92" rx="6" fill="#100f06" stroke="#4a3c16" stroke-width="1"></rect>
    <circle cx="18" cy="22" r="4" fill="#ffb627"></circle>
    <text x="32" y="27" font-size="12" fill="#ffb627" letter-spacing="1.5">SYSTEM ONLINE</text>
    <text x="16" y="50" font-size="10" fill="#7d825f" letter-spacing="1">throughput · agents · uptime</text>
    <g transform="translate(16,80)" fill="#ffb627">
      <rect x="0" y="-34" width="10" height="34" rx="2"></rect>
      <rect x="16" y="-34" width="10" height="34" rx="2"></rect>
      <rect x="32" y="-34" width="10" height="34" rx="2"></rect>
      <rect x="48" y="-34" width="10" height="34" rx="2"></rect>
      <rect x="64" y="-34" width="10" height="34" rx="2"></rect>
      <rect x="80" y="-34" width="10" height="34" rx="2"></rect>
      <rect x="96" y="-34" width="10" height="34" rx="2" opacity="0.7"></rect>
      <rect x="112" y="-34" width="10" height="34" rx="2" opacity="0.7"></rect>
    </g>
    <text x="150" y="80" font-size="10" fill="#7d825f">99.99%</text>
  </g>

  <text x="1224" y="384" text-anchor="end" font-size="11" fill="#7d825f" letter-spacing="1">12.97°N · 77.59°E — BANGALORE</text>
</svg>